<?xml version="1.0" standalone="no"?>
<!DOCTYPE svg PUBLIC "-//W3C//DTD SVG 20010904//EN"
 "http://www.w3.org/TR/2001/REC-SVG-20010904/DTD/svg10.dtd">
<svg version="1.0" xmlns="http://www.w3.org/2000/svg"
 width="416.000000pt" height="416.000000pt" viewBox="0 0 416.000000 416.000000"
 preserveAspectRatio="xMidYMid meet">

<g transform="translate(0.000000,416.000000) scale(0.100000,-0.100000)"
fill="#000000" stroke="none">
<path d="M1986 3314 c-51 -18 -101 -57 -134 -103 -26 -36 -28 -37 -57 -25 -17
7 -55 13 -86 14 -142 1 -246 -123 -220 -263 12 -65 40 -108 93 -142 l47 -30 0
-168 c1 -167 1 -168 -23 -177 -62 -23 -81 -93 -50 -184 18 -52 90 -136 117
-136 10 0 32 -30 58 -81 52 -100 124 -176 204 -215 54 -26 70 -29 155 -29 89
0 99 2 158 34 80 44 151 121 198 216 20 41 43 75 50 75 25 0 87 65 110 115 28
59 32 140 9 173 -9 12 -30 25 -48 30 l-32 8 -3 170 -2 169 39 23 c162 91 138
342 -38 401 -42 14 -104 14 -154 0 -37 -10 -38 -10 -88 45 -79 87 -199 119
-303 80z m173 -89 c27 -13 111 -100 111 -114 0 -3 -4 -22 -10 -40 -5 -19 -8
-37 -5 -39 2 -2 17 5 34 17 49 35 134 71 169 71 75 0 132 -60 132 -140 0 -63
-29 -107 -90 -133 l-50 -22 0 -64 0 -63 -45 6 c-219 33 -423 33 -652 0 l-43
-6 0 63 0 64 -53 28 c-60 31 -87 69 -87 122 0 83 60 145 139 145 48 0 77 -13
178 -81 40 -27 74 -49 77 -49 3 0 -10 34 -29 75 l-34 75 27 31 c42 51 80 69
145 69 32 0 71 -7 86 -15z m121 -585 c178 -18 170 -15 170 -67 l0 -45 -32 6
c-188 34 -488 34 -675 0 l-33 -6 0 45 0 45 83 11 c45 6 98 12 117 14 77 8 280
6 370 -3z m60 -178 l45 -7 5 -65 c3 -36 9 -71 13 -77 14 -23 63 -15 81 12 16
25 40 25 50 0 8 -21 -14 -87 -39 -121 -14 -18 -37 -34 -54 -37 -26 -5 -35 -17
-65 -81 -39 -84 -110 -168 -170 -198 -57 -29 -141 -34 -207 -13 -87 29 -172
126 -218 248 -7 18 -25 34 -54 46 -35 15 -49 29 -72 73 -29 56 -29 83 0 94 9
4 25 -4 40 -20 27 -30 43 -32 71 -12 15 12 19 28 21 82 1 38 5 70 10 71 59 20
422 23 543 5z"/>
<path d="M930 2619 c-161 -94 -180 -109 -180 -144 0 -11 42 -93 93 -180 l92
-160 112 -5 113 -5 66 -114 66 -115 -26 -19 c-14 -10 -26 -28 -26 -39 0 -11
30 -72 66 -134 l66 -113 71 50 c40 28 87 61 105 73 19 12 31 27 29 37 -7 28
-119 210 -132 215 -7 3 -26 -1 -42 -10 l-29 -15 -67 116 -67 116 50 87 c28 48
50 95 50 104 0 24 -157 296 -187 324 -13 12 -34 22 -46 21 -12 0 -92 -41 -177
-90z m198 -30 c4 -31 -20 -53 -47 -44 -45 14 -30 79 17 73 21 -2 28 -9 30 -29z
m-108 -49 c16 -31 -4 -62 -38 -58 -21 2 -28 9 -30 32 -5 45 47 65 68 26z m160
-34 c20 -25 8 -61 -21 -64 -36 -4 -55 21 -41 53 13 28 43 33 62 11z m-276 -22
c20 -19 20 -38 2 -54 -23 -19 -61 -8 -64 18 -7 44 32 67 62 36z m170 -43 c23
-25 6 -61 -29 -61 -33 0 -49 30 -29 58 19 27 36 28 58 3z m160 -34 c26 -19 18
-61 -12 -65 -44 -7 -67 32 -36 62 19 19 25 20 48 3z m-259 -37 c9 -15 -3 -47
-21 -54 -42 -16 -76 51 -37 73 18 10 46 0 58 -19z m164 -38 c7 -14 6 -25 -5
-40 -19 -27 -36 -28 -58 -3 -14 15 -15 24 -6 40 14 26 56 28 69 3z m-109 -57
c29 -35 -26 -85 -58 -53 -13 13 -16 50 -5 61 12 12 50 7 63 -8z"/>
<path d="M3038 2693 c-35 -40 -228 -392 -228 -416 0 -14 16 -55 35 -91 l35
-67 -47 -82 c-25 -45 -48 -84 -49 -86 -2 -2 -17 2 -34 9 -24 10 -33 10 -45 0
-15 -12 -125 -200 -125 -212 0 -4 46 -39 101 -78 83 -58 104 -69 114 -58 25
27 125 210 125 228 0 10 -11 27 -25 37 l-24 18 50 88 51 87 64 0 c113 0 115 2
242 222 62 107 112 204 112 215 0 27 -23 45 -51 41 -17 -2 -43 -40 -111 -158
-49 -85 -96 -160 -105 -167 -18 -14 -53 0 -53 21 0 7 41 83 90 169 50 86 90
165 90 177 0 27 -43 48 -63 31 -8 -6 -54 -81 -103 -166 -49 -85 -94 -157 -101
-160 -22 -8 -43 6 -43 28 0 12 41 91 90 178 50 86 90 161 90 167 0 17 -30 42
-49 42 -10 0 -25 -8 -33 -17z"/>
<path d="M413 2067 c-28 -64 -24 -167 10 -240 45 -98 115 -156 357 -295 117
-68 219 -121 226 -118 6 2 22 23 35 45 12 23 26 41 31 41 5 0 27 -12 49 -26
l41 -25 86 59 c47 33 87 63 89 68 1 5 -109 73 -245 151 -136 78 -340 196 -454
261 l-206 120 -19 -41z m308 -188 c134 -78 274 -159 311 -180 l67 -39 -52 -90
c-29 -49 -56 -90 -61 -90 -22 0 -386 221 -432 263 -65 59 -104 134 -104 198 0
50 7 79 19 79 4 0 118 -63 252 -141z"/>
<path d="M3273 1845 c-249 -144 -454 -263 -457 -266 -2 -2 38 -32 90 -67 l93
-63 40 26 c22 14 44 25 49 25 5 0 19 -18 31 -41 13 -22 29 -43 35 -45 7 -3
109 50 226 118 241 139 312 197 358 295 35 75 38 187 7 244 l-20 36 -452 -262z
m431 159 c3 -9 6 -37 6 -63 0 -65 -39 -139 -104 -199 -46 -41 -411 -262 -433
-262 -4 0 -31 41 -60 90 l-52 90 77 45 c42 24 181 105 307 179 127 73 235 134
241 135 7 1 15 -6 18 -15z"/>
<path d="M1690 1751 c-36 -26 -129 -93 -208 -149 l-143 -100 55 -13 55 -12
150 106 150 106 52 -35 c81 -54 144 -69 294 -69 145 1 217 19 285 74 l36 29
149 -104 c81 -57 156 -104 164 -103 9 0 34 6 56 12 l39 12 -209 147 -210 146
-43 -40 c-83 -76 -213 -110 -347 -91 -89 13 -192 59 -229 103 -13 17 -26 30
-28 29 -2 0 -32 -22 -68 -48z"/>
<path d="M1282 1234 l3 -199 85 -21 c220 -56 422 -77 710 -77 288 0 490 21
710 77 l85 21 3 199 c2 167 0 197 -12 193 -34 -13 -251 -58 -361 -74 -95 -14
-184 -18 -425 -18 -241 0 -330 4 -425 18 -110 16 -327 61 -361 74 -12 4 -14
-26 -12 -193z"/>
<path d="M880 1188 c19 -17 66 -61 104 -96 l70 -65 -105 -98 -104 -98 348 -1
347 0 0 35 c0 28 -4 35 -22 39 -13 3 -86 20 -163 38 l-140 34 -3 122 -3 122
-182 0 -182 -1 35 -31z"/>
<path d="M2948 1098 l-3 -122 -140 -34 c-77 -18 -150 -35 -162 -38 -19 -4 -23
-11 -23 -39 l0 -35 348 0 347 1 -104 98 -105 98 70 65 c38 35 85 79 104 96
l35 31 -182 1 -182 0 -3 -122z"/>
</g>
</svg>
